<svg width="280" height="36" viewBox="0 0 280 36" fill="none" xmlns="http://www.w3.org/2000/svg">
<path d="M22.2767 28.0933H7.68469L4.99669 35.5333H0.388687L12.4847 2.26932H17.5247L29.5727 35.5333H24.9647L22.2767 28.0933ZM21.0287 24.5413L14.9807 7.64532L8.93269 24.5413H21.0287ZM58.1724 9.22932V35.5333H53.8044V31.6453C52.9724 32.9893 51.8044 34.0453 50.3004 34.8133C48.8284 35.5493 47.1964 35.9173 45.4044 35.9173C43.3564 35.9173 41.5164 35.5013 39.8844 34.6693C38.2524 33.8053 36.9564 32.5253 35.9964 30.8293C35.0684 29.1333 34.6044 27.0693 34.6044 24.6373V9.22932H38.9244V24.0613C38.9244 26.6533 39.5804 28.6533 40.8924 30.0613C42.2044 31.4373 43.9964 32.1253 46.2684 32.1253C48.6044 32.1253 50.4444 31.4053 51.7884 29.9653C53.1324 28.5253 53.8044 26.4293 53.8044 23.6773V9.22932H58.1724ZM70.8756 12.8293V28.3333C70.8756 29.6133 71.1476 30.5253 71.6916 31.0693C72.2356 31.5813 73.1796 31.8373 74.5236 31.8373H77.7396V35.5333H73.8036C71.3716 35.5333 69.5476 34.9733 68.3316 33.8533C67.1156 32.7333 66.5076 30.8933 66.5076 28.3333V12.8293H63.0996V9.22932H66.5076V2.60532H70.8756V9.22932H77.7396V12.8293H70.8756ZM94.5039 35.9653C92.0399 35.9653 89.7999 35.4053 87.7839 34.2853C85.7999 33.1653 84.2319 31.5813 83.0799 29.5333C81.9599 27.4533 81.3999 25.0533 81.3999 22.3333C81.3999 19.6453 81.9759 17.2773 83.1279 15.2293C84.3119 13.1493 85.9119 11.5653 87.9279 10.4773C89.9439 9.35732 92.1999 8.79732 94.6959 8.79732C97.1919 8.79732 99.4479 9.35732 101.464 10.4773C103.48 11.5653 105.064 13.1333 106.216 15.1813C107.4 17.2293 107.992 19.6133 107.992 22.3333C107.992 25.0533 107.384 27.4533 106.168 29.5333C104.984 31.5813 103.368 33.1653 101.32 34.2853C99.2719 35.4053 96.9999 35.9653 94.5039 35.9653ZM94.5039 32.1253C96.0719 32.1253 97.5439 31.7573 98.9199 31.0213C100.296 30.2853 101.4 29.1813 102.232 27.7093C103.096 26.2373 103.528 24.4453 103.528 22.3333C103.528 20.2213 103.112 18.4293 102.28 16.9573C101.448 15.4853 100.36 14.3973 99.0159 13.6933C97.6719 12.9573 96.2159 12.5893 94.6479 12.5893C93.0479 12.5893 91.5759 12.9573 90.2319 13.6933C88.9199 14.3973 87.8639 15.4853 87.0639 16.9573C86.2639 18.4293 85.8639 20.2213 85.8639 22.3333C85.8639 24.4773 86.2479 26.2853 87.0159 27.7573C87.8159 29.2293 88.8719 30.3333 90.1839 31.0693C91.4959 31.7733 92.9359 32.1253 94.5039 32.1253ZM130.9 2.07732V35.5333H126.532V2.07732H130.9ZM147.656 35.9653C145.64 35.9653 143.832 35.6293 142.232 34.9573C140.632 34.2533 139.368 33.2933 138.44 32.0773C137.512 30.8293 137 29.4053 136.904 27.8053H141.416C141.544 29.1173 142.152 30.1893 143.24 31.0213C144.36 31.8533 145.816 32.2693 147.608 32.2693C149.272 32.2693 150.584 31.9013 151.544 31.1653C152.504 30.4293 152.984 29.5013 152.984 28.3813C152.984 27.2293 152.472 26.3813 151.448 25.8373C150.424 25.2613 148.84 24.7013 146.696 24.1573C144.744 23.6453 143.144 23.1333 141.896 22.6213C140.68 22.0773 139.624 21.2933 138.728 20.2693C137.864 19.2133 137.432 17.8373 137.432 16.1413C137.432 14.7973 137.832 13.5653 138.632 12.4453C139.432 11.3253 140.568 10.4453 142.04 9.80532C143.512 9.13332 145.192 8.79732 147.08 8.79732C149.992 8.79732 152.344 9.53332 154.136 11.0053C155.928 12.4773 156.888 14.4933 157.016 17.0533H152.648C152.552 15.6773 151.992 14.5733 150.968 13.7413C149.976 12.9093 148.632 12.4933 146.936 12.4933C145.368 12.4933 144.12 12.8293 143.192 13.5013C142.264 14.1733 141.8 15.0533 141.8 16.1413C141.8 17.0053 142.072 17.7253 142.616 18.3013C143.192 18.8453 143.896 19.2933 144.728 19.6453C145.592 19.9653 146.776 20.3333 148.28 20.7493C150.168 21.2613 151.704 21.7733 152.888 22.2853C154.072 22.7653 155.08 23.5013 155.912 24.4933C156.776 25.4853 157.224 26.7813 157.256 28.3813C157.256 29.8213 156.856 31.1173 156.056 32.2693C155.256 33.4213 154.12 34.3333 152.648 35.0053C151.208 35.6453 149.544 35.9653 147.656 35.9653ZM195.055 8.74932C197.103 8.74932 198.927 9.18132 200.527 10.0453C202.127 10.8773 203.391 12.1413 204.319 13.8373C205.247 15.5333 205.711 17.5973 205.711 20.0293V35.5333H201.391V20.6533C201.391 18.0293 200.735 16.0293 199.423 14.6533C198.143 13.2453 196.399 12.5413 194.191 12.5413C191.919 12.5413 190.111 13.2773 188.767 14.7493C187.423 16.1893 186.751 18.2853 186.751 21.0373V35.5333H182.431V20.6533C182.431 18.0293 181.775 16.0293 180.463 14.6533C179.183 13.2453 177.439 12.5413 175.231 12.5413C172.959 12.5413 171.151 13.2773 169.807 14.7493C168.463 16.1893 167.791 18.2853 167.791 21.0373V35.5333H163.423V9.22932H167.791V13.0213C168.655 11.6453 169.807 10.5893 171.247 9.85332C172.719 9.11732 174.335 8.74932 176.095 8.74932C178.303 8.74932 180.255 9.24532 181.951 10.2373C183.647 11.2293 184.911 12.6853 185.743 14.6053C186.479 12.7493 187.695 11.3093 189.391 10.2853C191.087 9.26132 192.975 8.74932 195.055 8.74932ZM211.244 22.2853C211.244 19.5973 211.788 17.2453 212.876 15.2293C213.964 13.1813 215.452 11.5973 217.34 10.4773C219.26 9.35732 221.388 8.79732 223.724 8.79732C226.028 8.79732 228.028 9.29332 229.724 10.2853C231.42 11.2773 232.684 12.5253 233.516 14.0293V9.22932H237.932V35.5333H233.516V30.6373C232.652 32.1733 231.356 33.4533 229.628 34.4773C227.932 35.4693 225.948 35.9653 223.676 35.9653C221.34 35.9653 219.228 35.3893 217.34 34.2373C215.452 33.0853 213.964 31.4693 212.876 29.3893C211.788 27.3093 211.244 24.9413 211.244 22.2853ZM233.516 22.3333C233.516 20.3493 233.116 18.6213 232.316 17.1493C231.516 15.6773 230.428 14.5573 229.052 13.7893C227.708 12.9893 226.22 12.5893 224.588 12.5893C222.956 12.5893 221.468 12.9733 220.124 13.7413C218.78 14.5093 217.708 15.6293 216.908 17.1013C216.108 18.5733 215.708 20.3013 215.708 22.2853C215.708 24.3013 216.108 26.0613 216.908 27.5653C217.708 29.0373 218.78 30.1733 220.124 30.9733C221.468 31.7413 222.956 32.1253 224.588 32.1253C226.22 32.1253 227.708 31.7413 229.052 30.9733C230.428 30.1733 231.516 29.0373 232.316 27.5653C233.116 26.0613 233.516 24.3173 233.516 22.3333ZM269.313 21.3733C269.313 22.2053 269.265 23.0853 269.169 24.0133H248.145C248.305 26.6053 249.185 28.6373 250.785 30.1093C252.417 31.5493 254.385 32.2693 256.689 32.2693C258.577 32.2693 260.145 31.8373 261.393 30.9733C262.673 30.0773 263.569 28.8933 264.081 27.4213H268.785C268.081 29.9493 266.673 32.0133 264.561 33.6133C262.449 35.1813 259.825 35.9653 256.689 35.9653C254.193 35.9653 251.953 35.4053 249.969 34.2853C248.017 33.1653 246.481 31.5813 245.361 29.5333C244.241 27.4533 243.681 25.0533 243.681 22.3333C243.681 19.6133 244.225 17.2293 245.313 15.1813C246.401 13.1333 247.921 11.5653 249.873 10.4773C251.857 9.35732 254.129 8.79732 256.689 8.79732C259.185 8.79732 261.393 9.34132 263.313 10.4293C265.233 11.5173 266.705 13.0213 267.729 14.9413C268.785 16.8293 269.313 18.9733 269.313 21.3733ZM264.801 20.4613C264.801 18.7973 264.433 17.3733 263.697 16.1893C262.961 14.9733 261.953 14.0613 260.673 13.4533C259.425 12.8133 258.033 12.4933 256.497 12.4933C254.289 12.4933 252.401 13.1973 250.833 14.6053C249.297 16.0133 248.417 17.9653 248.193 20.4613H264.801ZM279.447 0.0133247V35.5333H275.079V0.0133247H279.447Z" fill="url(#paint0_linear)"/>
<defs>
<linearGradient id="paint0_linear" x1="-30" y1="38" x2="321" y2="38" gradientUnits="userSpaceOnUse">
<stop stop-color="#E3E3E3"/>
<stop offset="1" stop-color="white"/>
</linearGradient>
</defs>
</svg>
