<svg width="360" height="118" viewBox="0 0 360 118" fill="none" xmlns="http://www.w3.org/2000/svg">
<g id="be-car-care-aware 1">
<g clip-path="url(#clip0)">
<path id="Vector" d="M152.507 16.0517C120.581 17.2259 114.202 38.6555 83.7653 42.4638C65.2477 44.7726 54.1897 43.1779 39.6647 50.4374C28.2053 56.1737 20.0377 73.0413 20.0012 76.683C19.9939 78.0794 20.0158 81.1498 20.1837 82.0781C20.388 83.2364 20.899 83.292 21.3515 82.3082C21.8041 81.3164 27.4097 65.2739 41.4092 58.5221C55.54 51.7069 69.795 53.5158 85.2178 51.326C112.268 47.486 122.654 25.8898 151.602 24.8187C162.39 24.422 171.288 26.223 179.535 28.9126C182.417 27.2533 185.13 25.2695 187.63 22.9939C175.514 18.3287 165.215 15.5836 152.507 16.0517ZM207.286 39.798C219.702 44.3204 236.482 54.6742 261.153 54.9757C271.496 55.1026 275.955 53.4206 276.481 52.7145C277.568 51.2308 276.634 45.6057 276.481 44.8281C276.123 42.9557 274.736 45.2248 271.379 45.32C269.474 45.3756 253.883 48.9459 230.957 40.4962C215.826 34.9107 204.243 29.7536 194.206 25.6279C192.024 27.7542 189.864 29.8805 187.637 31.864C194.148 34.4346 200.476 37.3226 207.286 39.798Z" fill="#CF4037"/>
<path id="Vector_2" d="M339.683 28.2786L252.899 28.4216C250.887 28.4216 249.452 27.2216 249.452 24.1856C249.452 23.1922 249.679 13.5519 249.423 10.1186C248.962 4.03078 248.237 1.16174 237.735 1.16174C235.196 1.16174 214.769 -0.570815 204.428 7.30515C198.164 12.0816 192.88 17.8912 187.5 22.6279C184.866 24.9486 182.195 27.007 179.384 28.5567C178.312 29.1558 177.205 29.6762 176.069 30.1145C160.049 36.234 147.417 32.1331 130.987 36.6155C124.458 38.3957 113.92 46.6134 110.407 56.9929C110.063 58.0022 109.924 58.8287 110.041 63.4462C110.077 64.8768 111.014 65.5682 111.475 64.4317C111.929 63.3032 115.025 53.6788 126.632 47.3446C136.468 41.9721 162.588 44.1974 175.103 39.5799C179.706 37.8792 183.702 34.9147 187.522 31.4973C189.755 29.5104 191.921 27.3805 194.109 25.2506C198.881 20.6013 203.77 15.9918 209.654 13.0909C218.67 8.63238 240.772 10.1821 242.851 10.3331C246.539 10.6034 247.879 12.0101 248.032 17.2554C248.047 21.1392 248.025 25.0231 247.966 28.9064C247.93 32.4113 248.911 37.5851 253.609 37.5692C255.695 37.5613 338.46 37.5215 339.697 37.45C340.934 37.3785 341 34.9068 341 32.7212C341 30.5357 340.846 28.2786 339.683 28.2786Z" fill="#1A3B73"/>
<path id="Auto Ismael" d="M65.2767 95.0933H50.6847L47.9967 102.533H43.3887L55.4847 69.2693H60.5247L72.5727 102.533H67.9647L65.2767 95.0933ZM64.0287 91.5413L57.9807 74.6453L51.9327 91.5413H64.0287ZM101.172 76.2293V102.533H96.8044V98.6453C95.9724 99.9893 94.8044 101.045 93.3004 101.813C91.8284 102.549 90.1964 102.917 88.4044 102.917C86.3564 102.917 84.5164 102.501 82.8844 101.669C81.2524 100.805 79.9564 99.5253 78.9964 97.8293C78.0684 96.1333 77.6044 94.0693 77.6044 91.6373V76.2293H81.9244V91.0613C81.9244 93.6533 82.5804 95.6533 83.8924 97.0613C85.2044 98.4373 86.9964 99.1253 89.2684 99.1253C91.6044 99.1253 93.4444 98.4053 94.7884 96.9653C96.1324 95.5253 96.8044 93.4293 96.8044 90.6773V76.2293H101.172ZM113.876 79.8293V95.3333C113.876 96.6133 114.148 97.5253 114.692 98.0693C115.236 98.5813 116.18 98.8373 117.524 98.8373H120.74V102.533H116.804C114.372 102.533 112.548 101.973 111.332 100.853C110.116 99.7333 109.508 97.8933 109.508 95.3333V79.8293H106.1V76.2293H109.508V69.6053H113.876V76.2293H120.74V79.8293H113.876ZM137.504 102.965C135.04 102.965 132.8 102.405 130.784 101.285C128.8 100.165 127.232 98.5813 126.08 96.5333C124.96 94.4533 124.4 92.0533 124.4 89.3333C124.4 86.6453 124.976 84.2773 126.128 82.2293C127.312 80.1493 128.912 78.5653 130.928 77.4773C132.944 76.3573 135.2 75.7973 137.696 75.7973C140.192 75.7973 142.448 76.3573 144.464 77.4773C146.48 78.5653 148.064 80.1333 149.216 82.1813C150.4 84.2293 150.992 86.6133 150.992 89.3333C150.992 92.0533 150.384 94.4533 149.168 96.5333C147.984 98.5813 146.368 100.165 144.32 101.285C142.272 102.405 140 102.965 137.504 102.965ZM137.504 99.1253C139.072 99.1253 140.544 98.7573 141.92 98.0213C143.296 97.2853 144.4 96.1813 145.232 94.7093C146.096 93.2373 146.528 91.4453 146.528 89.3333C146.528 87.2213 146.112 85.4293 145.28 83.9573C144.448 82.4853 143.36 81.3973 142.016 80.6933C140.672 79.9573 139.216 79.5893 137.648 79.5893C136.048 79.5893 134.576 79.9573 133.232 80.6933C131.92 81.3973 130.864 82.4853 130.064 83.9573C129.264 85.4293 128.864 87.2213 128.864 89.3333C128.864 91.4773 129.248 93.2853 130.016 94.7573C130.816 96.2293 131.872 97.3333 133.184 98.0693C134.496 98.7733 135.936 99.1253 137.504 99.1253ZM173.9 69.0773V102.533H169.532V69.0773H173.9ZM190.656 102.965C188.64 102.965 186.832 102.629 185.232 101.957C183.632 101.253 182.368 100.293 181.44 99.0773C180.512 97.8293 180 96.4053 179.904 94.8053H184.416C184.544 96.1173 185.152 97.1893 186.24 98.0213C187.36 98.8533 188.816 99.2693 190.608 99.2693C192.272 99.2693 193.584 98.9013 194.544 98.1653C195.504 97.4293 195.984 96.5013 195.984 95.3813C195.984 94.2293 195.472 93.3813 194.448 92.8373C193.424 92.2613 191.84 91.7013 189.696 91.1573C187.744 90.6453 186.144 90.1333 184.896 89.6213C183.68 89.0773 182.624 88.2933 181.728 87.2693C180.864 86.2133 180.432 84.8373 180.432 83.1413C180.432 81.7973 180.832 80.5653 181.632 79.4453C182.432 78.3253 183.568 77.4453 185.04 76.8053C186.512 76.1333 188.192 75.7973 190.08 75.7973C192.992 75.7973 195.344 76.5333 197.136 78.0053C198.928 79.4773 199.888 81.4933 200.016 84.0533H195.648C195.552 82.6773 194.992 81.5733 193.968 80.7413C192.976 79.9093 191.632 79.4933 189.936 79.4933C188.368 79.4933 187.12 79.8293 186.192 80.5013C185.264 81.1733 184.8 82.0533 184.8 83.1413C184.8 84.0053 185.072 84.7253 185.616 85.3013C186.192 85.8453 186.896 86.2933 187.728 86.6453C188.592 86.9653 189.776 87.3333 191.28 87.7493C193.168 88.2613 194.704 88.7733 195.888 89.2853C197.072 89.7653 198.08 90.5013 198.912 91.4933C199.776 92.4853 200.224 93.7813 200.256 95.3813C200.256 96.8213 199.856 98.1173 199.056 99.2693C198.256 100.421 197.12 101.333 195.648 102.005C194.208 102.645 192.544 102.965 190.656 102.965ZM238.055 75.7493C240.103 75.7493 241.927 76.1813 243.527 77.0453C245.127 77.8773 246.391 79.1413 247.319 80.8373C248.247 82.5333 248.711 84.5973 248.711 87.0293V102.533H244.391V87.6533C244.391 85.0293 243.735 83.0293 242.423 81.6533C241.143 80.2453 239.399 79.5413 237.191 79.5413C234.919 79.5413 233.111 80.2773 231.767 81.7493C230.423 83.1893 229.751 85.2853 229.751 88.0373V102.533H225.431V87.6533C225.431 85.0293 224.775 83.0293 223.463 81.6533C222.183 80.2453 220.439 79.5413 218.231 79.5413C215.959 79.5413 214.151 80.2773 212.807 81.7493C211.463 83.1893 210.791 85.2853 210.791 88.0373V102.533H206.423V76.2293H210.791V80.0213C211.655 78.6453 212.807 77.5893 214.247 76.8533C215.719 76.1173 217.335 75.7493 219.095 75.7493C221.303 75.7493 223.255 76.2453 224.951 77.2373C226.647 78.2293 227.911 79.6853 228.743 81.6053C229.479 79.7493 230.695 78.3093 232.391 77.2853C234.087 76.2613 235.975 75.7493 238.055 75.7493ZM254.244 89.2853C254.244 86.5973 254.788 84.2453 255.876 82.2293C256.964 80.1813 258.452 78.5973 260.34 77.4773C262.26 76.3573 264.388 75.7973 266.724 75.7973C269.028 75.7973 271.028 76.2933 272.724 77.2853C274.42 78.2773 275.684 79.5253 276.516 81.0293V76.2293H280.932V102.533H276.516V97.6373C275.652 99.1733 274.356 100.453 272.628 101.477C270.932 102.469 268.948 102.965 266.676 102.965C264.34 102.965 262.228 102.389 260.34 101.237C258.452 100.085 256.964 98.4693 255.876 96.3893C254.788 94.3093 254.244 91.9413 254.244 89.2853ZM276.516 89.3333C276.516 87.3493 276.116 85.6213 275.316 84.1493C274.516 82.6773 273.428 81.5573 272.052 80.7893C270.708 79.9893 269.22 79.5893 267.588 79.5893C265.956 79.5893 264.468 79.9733 263.124 80.7413C261.78 81.5093 260.708 82.6293 259.908 84.1013C259.108 85.5733 258.708 87.3013 258.708 89.2853C258.708 91.3013 259.108 93.0613 259.908 94.5653C260.708 96.0373 261.78 97.1733 263.124 97.9733C264.468 98.7413 265.956 99.1253 267.588 99.1253C269.22 99.1253 270.708 98.7413 272.052 97.9733C273.428 97.1733 274.516 96.0373 275.316 94.5653C276.116 93.0613 276.516 91.3173 276.516 89.3333ZM312.313 88.3733C312.313 89.2053 312.265 90.0853 312.169 91.0133H291.145C291.305 93.6053 292.185 95.6373 293.785 97.1093C295.417 98.5493 297.385 99.2693 299.689 99.2693C301.577 99.2693 303.145 98.8373 304.393 97.9733C305.673 97.0773 306.569 95.8933 307.081 94.4213H311.785C311.081 96.9493 309.673 99.0133 307.561 100.613C305.449 102.181 302.825 102.965 299.689 102.965C297.193 102.965 294.953 102.405 292.969 101.285C291.017 100.165 289.481 98.5813 288.361 96.5333C287.241 94.4533 286.681 92.0533 286.681 89.3333C286.681 86.6133 287.225 84.2293 288.313 82.1813C289.401 80.1333 290.921 78.5653 292.873 77.4773C294.857 76.3573 297.129 75.7973 299.689 75.7973C302.185 75.7973 304.393 76.3413 306.313 77.4293C308.233 78.5173 309.705 80.0213 310.729 81.9413C311.785 83.8293 312.313 85.9733 312.313 88.3733ZM307.801 87.4613C307.801 85.7973 307.433 84.3733 306.697 83.1893C305.961 81.9733 304.953 81.0613 303.673 80.4533C302.425 79.8133 301.033 79.4933 299.497 79.4933C297.289 79.4933 295.401 80.1973 293.833 81.6053C292.297 83.0133 291.417 84.9653 291.193 87.4613H307.801ZM322.447 67.0133V102.533H318.079V67.0133H322.447Z" fill="url(#paint0_linear)"/>
</g>
</g>
<defs>
<linearGradient id="paint0_linear" x1="13" y1="105" x2="364" y2="105" gradientUnits="userSpaceOnUse">
<stop stop-color="#1A3B73"/>
<stop offset="1" stop-color="#CF4037"/>
</linearGradient>
<clipPath id="clip0">
<rect width="360" height="118" fill="white"/>
</clipPath>
</defs>
</svg>
