<svg width="360" height="118" viewBox="0 0 360 118" fill="none" xmlns="http://www.w3.org/2000/svg">
<g id="be-car-care-aware 2">
<g clip-path="url(#clip0)">
<g id="be-car-care-aware 4">
<g clip-path="url(#clip1)">
<path id="Vector" d="M152.507 22.0517C120.581 23.2259 114.202 44.6555 83.7653 48.4638C65.2477 50.7726 54.1897 49.1779 39.6647 56.4374C28.2053 62.1737 20.0377 79.0413 20.0012 82.683C19.9939 84.0794 20.0158 87.1498 20.1837 88.0781C20.388 89.2364 20.899 89.292 21.3515 88.3082C21.8041 87.3164 27.4097 71.2739 41.4092 64.5221C55.54 57.7069 69.795 59.5158 85.2178 57.326C112.268 53.486 122.654 31.8898 151.602 30.8187C162.39 30.422 171.288 32.223 179.535 34.9126C182.417 33.2533 185.13 31.2695 187.63 28.9939C175.514 24.3287 165.215 21.5836 152.507 22.0517V22.0517ZM207.286 45.798C219.702 50.3204 236.482 60.6742 261.153 60.9757C271.496 61.1026 275.955 59.4206 276.481 58.7145C277.568 57.2308 276.634 51.6057 276.481 50.8281C276.123 48.9557 274.736 51.2248 271.379 51.32C269.474 51.3756 253.883 54.9459 230.957 46.4962C215.826 40.9107 204.243 35.7536 194.206 31.6279C192.024 33.7542 189.864 35.8805 187.637 37.864C194.148 40.4346 200.476 43.3226 207.286 45.798V45.798Z" fill="white"/>
<path id="Vector_2" d="M339.683 34.2786L252.899 34.4216C250.887 34.4216 249.452 33.2216 249.452 30.1856C249.452 29.1922 249.679 19.5519 249.423 16.1186C248.962 10.0308 248.237 7.16174 237.735 7.16174C235.196 7.16174 214.769 5.42918 204.428 13.3051C198.164 18.0816 192.88 23.8912 187.5 28.6279C184.866 30.9486 182.195 33.007 179.384 34.5567C178.312 35.1558 177.205 35.6762 176.069 36.1145C160.049 42.234 147.417 38.1331 130.987 42.6155C124.458 44.3957 113.92 52.6134 110.407 62.9929C110.063 64.0022 109.924 64.8287 110.041 69.4462C110.077 70.8768 111.014 71.5682 111.475 70.4317C111.929 69.3032 115.025 59.6788 126.632 53.3446C136.468 47.9721 162.588 50.1974 175.103 45.5799C179.706 43.8792 183.702 40.9147 187.522 37.4973C189.755 35.5104 191.921 33.3805 194.109 31.2506C198.881 26.6013 203.77 21.9918 209.654 19.0909C218.67 14.6324 240.772 16.1821 242.851 16.3331C246.539 16.6034 247.879 18.0101 248.032 23.2554C248.047 27.1392 248.025 31.0231 247.966 34.9064C247.93 38.4113 248.911 43.5851 253.609 43.5692C255.695 43.5613 338.46 43.5215 339.697 43.45C340.934 43.3785 341 40.9068 341 38.7212C341 36.5357 340.846 34.2786 339.683 34.2786Z" fill="white"/>
<path id="Auto Ismael" d="M65.2767 101.093H50.6847L47.9967 108.533H43.3887L55.4847 75.2693H60.5247L72.5727 108.533H67.9647L65.2767 101.093ZM64.0287 97.5413L57.9807 80.6453L51.9327 97.5413H64.0287ZM101.172 82.2293V108.533H96.8044V104.645C95.9724 105.989 94.8044 107.045 93.3004 107.813C91.8284 108.549 90.1964 108.917 88.4044 108.917C86.3564 108.917 84.5164 108.501 82.8844 107.669C81.2524 106.805 79.9564 105.525 78.9964 103.829C78.0684 102.133 77.6044 100.069 77.6044 97.6373V82.2293H81.9244V97.0613C81.9244 99.6533 82.5804 101.653 83.8924 103.061C85.2044 104.437 86.9964 105.125 89.2684 105.125C91.6044 105.125 93.4444 104.405 94.7884 102.965C96.1324 101.525 96.8044 99.4293 96.8044 96.6773V82.2293H101.172ZM113.876 85.8293V101.333C113.876 102.613 114.148 103.525 114.692 104.069C115.236 104.581 116.18 104.837 117.524 104.837H120.74V108.533H116.804C114.372 108.533 112.548 107.973 111.332 106.853C110.116 105.733 109.508 103.893 109.508 101.333V85.8293H106.1V82.2293H109.508V75.6053H113.876V82.2293H120.74V85.8293H113.876ZM137.504 108.965C135.04 108.965 132.8 108.405 130.784 107.285C128.8 106.165 127.232 104.581 126.08 102.533C124.96 100.453 124.4 98.0533 124.4 95.3333C124.4 92.6453 124.976 90.2773 126.128 88.2293C127.312 86.1493 128.912 84.5653 130.928 83.4773C132.944 82.3573 135.2 81.7973 137.696 81.7973C140.192 81.7973 142.448 82.3573 144.464 83.4773C146.48 84.5653 148.064 86.1333 149.216 88.1813C150.4 90.2293 150.992 92.6133 150.992 95.3333C150.992 98.0533 150.384 100.453 149.168 102.533C147.984 104.581 146.368 106.165 144.32 107.285C142.272 108.405 140 108.965 137.504 108.965ZM137.504 105.125C139.072 105.125 140.544 104.757 141.92 104.021C143.296 103.285 144.4 102.181 145.232 100.709C146.096 99.2373 146.528 97.4453 146.528 95.3333C146.528 93.2213 146.112 91.4293 145.28 89.9573C144.448 88.4853 143.36 87.3973 142.016 86.6933C140.672 85.9573 139.216 85.5893 137.648 85.5893C136.048 85.5893 134.576 85.9573 133.232 86.6933C131.92 87.3973 130.864 88.4853 130.064 89.9573C129.264 91.4293 128.864 93.2213 128.864 95.3333C128.864 97.4773 129.248 99.2853 130.016 100.757C130.816 102.229 131.872 103.333 133.184 104.069C134.496 104.773 135.936 105.125 137.504 105.125ZM173.9 75.0773V108.533H169.532V75.0773H173.9ZM190.656 108.965C188.64 108.965 186.832 108.629 185.232 107.957C183.632 107.253 182.368 106.293 181.44 105.077C180.512 103.829 180 102.405 179.904 100.805H184.416C184.544 102.117 185.152 103.189 186.24 104.021C187.36 104.853 188.816 105.269 190.608 105.269C192.272 105.269 193.584 104.901 194.544 104.165C195.504 103.429 195.984 102.501 195.984 101.381C195.984 100.229 195.472 99.3813 194.448 98.8373C193.424 98.2613 191.84 97.7013 189.696 97.1573C187.744 96.6453 186.144 96.1333 184.896 95.6213C183.68 95.0773 182.624 94.2933 181.728 93.2693C180.864 92.2133 180.432 90.8373 180.432 89.1413C180.432 87.7973 180.832 86.5653 181.632 85.4453C182.432 84.3253 183.568 83.4453 185.04 82.8053C186.512 82.1333 188.192 81.7973 190.08 81.7973C192.992 81.7973 195.344 82.5333 197.136 84.0053C198.928 85.4773 199.888 87.4933 200.016 90.0533H195.648C195.552 88.6773 194.992 87.5733 193.968 86.7413C192.976 85.9093 191.632 85.4933 189.936 85.4933C188.368 85.4933 187.12 85.8293 186.192 86.5013C185.264 87.1733 184.8 88.0533 184.8 89.1413C184.8 90.0053 185.072 90.7253 185.616 91.3013C186.192 91.8453 186.896 92.2933 187.728 92.6453C188.592 92.9653 189.776 93.3333 191.28 93.7493C193.168 94.2613 194.704 94.7733 195.888 95.2853C197.072 95.7653 198.08 96.5013 198.912 97.4933C199.776 98.4853 200.224 99.7813 200.256 101.381C200.256 102.821 199.856 104.117 199.056 105.269C198.256 106.421 197.12 107.333 195.648 108.005C194.208 108.645 192.544 108.965 190.656 108.965ZM238.055 81.7493C240.103 81.7493 241.927 82.1813 243.527 83.0453C245.127 83.8773 246.391 85.1413 247.319 86.8373C248.247 88.5333 248.711 90.5973 248.711 93.0293V108.533H244.391V93.6533C244.391 91.0293 243.735 89.0293 242.423 87.6533C241.143 86.2453 239.399 85.5413 237.191 85.5413C234.919 85.5413 233.111 86.2773 231.767 87.7493C230.423 89.1893 229.751 91.2853 229.751 94.0373V108.533H225.431V93.6533C225.431 91.0293 224.775 89.0293 223.463 87.6533C222.183 86.2453 220.439 85.5413 218.231 85.5413C215.959 85.5413 214.151 86.2773 212.807 87.7493C211.463 89.1893 210.791 91.2853 210.791 94.0373V108.533H206.423V82.2293H210.791V86.0213C211.655 84.6453 212.807 83.5893 214.247 82.8533C215.719 82.1173 217.335 81.7493 219.095 81.7493C221.303 81.7493 223.255 82.2453 224.951 83.2373C226.647 84.2293 227.911 85.6853 228.743 87.6053C229.479 85.7493 230.695 84.3093 232.391 83.2853C234.087 82.2613 235.975 81.7493 238.055 81.7493ZM254.244 95.2853C254.244 92.5973 254.788 90.2453 255.876 88.2293C256.964 86.1813 258.452 84.5973 260.34 83.4773C262.26 82.3573 264.388 81.7973 266.724 81.7973C269.028 81.7973 271.028 82.2933 272.724 83.2853C274.42 84.2773 275.684 85.5253 276.516 87.0293V82.2293H280.932V108.533H276.516V103.637C275.652 105.173 274.356 106.453 272.628 107.477C270.932 108.469 268.948 108.965 266.676 108.965C264.34 108.965 262.228 108.389 260.34 107.237C258.452 106.085 256.964 104.469 255.876 102.389C254.788 100.309 254.244 97.9413 254.244 95.2853ZM276.516 95.3333C276.516 93.3493 276.116 91.6213 275.316 90.1493C274.516 88.6773 273.428 87.5573 272.052 86.7893C270.708 85.9893 269.22 85.5893 267.588 85.5893C265.956 85.5893 264.468 85.9733 263.124 86.7413C261.78 87.5093 260.708 88.6293 259.908 90.1013C259.108 91.5733 258.708 93.3013 258.708 95.2853C258.708 97.3013 259.108 99.0613 259.908 100.565C260.708 102.037 261.78 103.173 263.124 103.973C264.468 104.741 265.956 105.125 267.588 105.125C269.22 105.125 270.708 104.741 272.052 103.973C273.428 103.173 274.516 102.037 275.316 100.565C276.116 99.0613 276.516 97.3173 276.516 95.3333ZM312.313 94.3733C312.313 95.2053 312.265 96.0853 312.169 97.0133H291.145C291.305 99.6053 292.185 101.637 293.785 103.109C295.417 104.549 297.385 105.269 299.689 105.269C301.577 105.269 303.145 104.837 304.393 103.973C305.673 103.077 306.569 101.893 307.081 100.421H311.785C311.081 102.949 309.673 105.013 307.561 106.613C305.449 108.181 302.825 108.965 299.689 108.965C297.193 108.965 294.953 108.405 292.969 107.285C291.017 106.165 289.481 104.581 288.361 102.533C287.241 100.453 286.681 98.0533 286.681 95.3333C286.681 92.6133 287.225 90.2293 288.313 88.1813C289.401 86.1333 290.921 84.5653 292.873 83.4773C294.857 82.3573 297.129 81.7973 299.689 81.7973C302.185 81.7973 304.393 82.3413 306.313 83.4293C308.233 84.5173 309.705 86.0213 310.729 87.9413C311.785 89.8293 312.313 91.9733 312.313 94.3733ZM307.801 93.4613C307.801 91.7973 307.433 90.3733 306.697 89.1893C305.961 87.9733 304.953 87.0613 303.673 86.4533C302.425 85.8133 301.033 85.4933 299.497 85.4933C297.289 85.4933 295.401 86.1973 293.833 87.6053C292.297 89.0133 291.417 90.9653 291.193 93.4613H307.801ZM322.447 73.0133V108.533H318.079V73.0133H322.447Z" fill="url(#paint0_linear)"/>
</g>
</g>
</g>
</g>
<defs>
<linearGradient id="paint0_linear" x1="13" y1="111" x2="364" y2="111" gradientUnits="userSpaceOnUse">
<stop stop-color="#E3E3E3"/>
<stop offset="1" stop-color="white"/>
</linearGradient>
<clipPath id="clip0">
<rect width="360" height="118" fill="white"/>
</clipPath>
<clipPath id="clip1">
<rect y="6" width="360" height="118" fill="white"/>
</clipPath>
</defs>
</svg>
